<?xml version="1.0" encoding="UTF-8" standalone="no"?>
<svg width="88px" height="88px" viewBox="0 0 88 88" version="1.1" xmlns="http://www.w3.org/2000/svg" xmlns:xlink="http://www.w3.org/1999/xlink">
    <!-- Generator: Sketch 42 (36781) - http://www.bohemiancoding.com/sketch -->
    <title>money_zone_buy_now_pay_later</title>
    <desc>Created with Sketch.</desc>
    <defs></defs>
    <g id="1.-App-Journey-📱" stroke="none" stroke-width="1" fill="none" fill-rule="evenodd">
        <path d="M5.088,45.287 L11.681,45.287 L11.681,42.518 L5.088,42.518 L5.088,45.287 Z M76.231,45.287 L82.784,45.287 L82.784,42.519 L76.231,42.519 L76.231,45.287 Z M87.912,44.044 C87.912,19.806 68.194,0.088 43.956,0.088 L43.956,2.857 C66.667,2.857 85.143,21.333 85.143,44.044 C85.143,66.754 66.667,85.231 43.956,85.231 C21.245,85.231 2.769,66.754 2.769,44.044 C2.769,33.873 6.483,24.558 12.616,17.365 L12.616,23.413 L15.385,23.413 L15.385,12.32 L4.396,12.32 L4.396,15.089 L10.926,15.089 C4.132,22.829 0,32.96 0,44.044 C0,68.281 19.718,88 43.956,88 C68.194,88 87.912,68.281 87.912,44.044 Z M42.572,11.628 L45.341,11.628 L45.341,5.035 L42.572,5.035 L42.572,11.628 Z M42.572,82.771 L45.341,82.771 L45.341,76.178 L42.572,76.178 L42.572,82.771 Z M17.583,45.002 L45.341,45.002 L45.341,17.529 L42.572,17.529 L42.572,42.233 L17.583,42.233 L17.583,45.002 L17.583,45.002 Z" id="money_zone_buy_now_pay_later" fill="#DF007B"></path>
    </g>
</svg>