<?xml version="1.0" encoding="UTF-8" standalone="no"?>
<svg width="24px" height="24px" viewBox="0 0 24 24" version="1.1" xmlns="http://www.w3.org/2000/svg" xmlns:xlink="http://www.w3.org/1999/xlink">
    <!-- Generator: Sketch 42 (36781) - http://www.bohemiancoding.com/sketch -->
    <title>ic_info_48px</title>
    <desc>Created with Sketch.</desc>
    <defs></defs>
    <g id="1.-App-Journey-📱" stroke="none" stroke-width="1" fill="none" fill-rule="evenodd">
        <g id="Click-Collect-1" transform="translate(-22.000000, -281.000000)">
            <g id="Group-5" transform="translate(0.000000, 198.000000)">
                <g id="Group-3" transform="translate(0.000000, 61.000000)">
                    <g id="ic_info_48px" transform="translate(20.000000, 20.000000)">
                        <polygon id="Shape" points="0 0 28 0 28 28 0 28"></polygon>
                        <path d="M14,2.33333333 C7.55416667,2.33333333 2.33333333,7.55416667 2.33333333,14 C2.33333333,20.4458333 7.55416667,25.6666667 14,25.6666667 C20.4458333,25.6666667 25.6666667,20.4458333 25.6666667,14 C25.6666667,7.55416667 20.4458333,2.33333333 14,2.33333333 L14,2.33333333 Z M15.1666667,19.8333333 L12.8333333,19.8333333 L12.8333333,12.8333333 L15.1666667,12.8333333 L15.1666667,19.8333333 L15.1666667,19.8333333 Z M15.1666667,10.5 L12.8333333,10.5 L12.8333333,8.16666667 L15.1666667,8.16666667 L15.1666667,10.5 L15.1666667,10.5 Z" id="Shape" fill="#2980B9"></path>
                    </g>
                </g>
            </g>
        </g>
    </g>
</svg>